<svg width="24" height="24" viewBox="0 0 24 24" fill="none" xmlns="http://www.w3.org/2000/svg">
<path d="M16.3126 1.01101C16.2659 0.95876 14.5815 1.03163 13.1158 2.62251C11.65 4.21201 11.8755 6.03526 11.9085 6.08201C11.9415 6.12876 13.9985 6.20163 15.3116 4.35226C16.6248 2.50288 16.3594 1.06463 16.3126 1.01101V1.01101ZM20.8694 17.1439C20.8034 17.0119 17.6725 15.4471 17.964 12.4386C18.2555 9.42876 20.2671 8.60376 20.2988 8.51439C20.3304 8.42501 19.4779 7.42813 18.5745 6.92351C17.9112 6.56773 17.1772 6.3639 16.4254 6.32676C16.2769 6.32263 15.7613 6.19613 14.7011 6.48626C14.0026 6.67738 12.4283 7.29614 11.9951 7.32089C11.5606 7.34564 10.2681 6.60313 8.87802 6.40651C7.9884 6.23463 7.04515 6.58664 6.37002 6.85751C5.69627 7.12701 4.41477 7.89426 3.51827 9.93339C2.62177 11.9711 3.09065 15.1996 3.42615 16.2034C3.76165 17.2058 4.28552 18.8489 5.17652 20.0479C5.96852 21.4009 7.01902 22.34 7.45765 22.659C7.89627 22.978 9.13377 23.1898 9.99177 22.7511C10.682 22.3276 11.9278 22.0843 12.42 22.1021C12.9109 22.12 13.8789 22.3139 14.8703 22.8433C15.6554 23.1141 16.3979 23.0014 17.1418 22.6989C17.8856 22.395 18.9623 21.2428 20.219 18.9066C20.6961 17.8204 20.9134 17.2333 20.8694 17.1439V17.1439Z" fill="black"/>
<path d="M16.3126 1.01101C16.2659 0.95876 14.5815 1.03163 13.1158 2.62251C11.65 4.21201 11.8755 6.03526 11.9085 6.08201C11.9415 6.12876 13.9985 6.20163 15.3116 4.35226C16.6248 2.50288 16.3594 1.06463 16.3126 1.01101V1.01101ZM20.8694 17.1439C20.8034 17.0119 17.6725 15.4471 17.964 12.4386C18.2555 9.42876 20.2671 8.60376 20.2988 8.51439C20.3304 8.42501 19.4779 7.42813 18.5745 6.92351C17.9112 6.56773 17.1772 6.3639 16.4254 6.32676C16.2769 6.32263 15.7613 6.19613 14.7011 6.48626C14.0026 6.67738 12.4283 7.29614 11.9951 7.32089C11.5606 7.34564 10.2681 6.60313 8.87802 6.40651C7.9884 6.23463 7.04515 6.58664 6.37002 6.85751C5.69627 7.12701 4.41477 7.89426 3.51827 9.93339C2.62177 11.9711 3.09065 15.1996 3.42615 16.2034C3.76165 17.2058 4.28552 18.8489 5.17652 20.0479C5.96852 21.4009 7.01902 22.34 7.45765 22.659C7.89627 22.978 9.13377 23.1898 9.99177 22.7511C10.682 22.3276 11.9278 22.0843 12.42 22.1021C12.9109 22.12 13.8789 22.3139 14.8703 22.8433C15.6554 23.1141 16.3979 23.0014 17.1418 22.6989C17.8856 22.395 18.9623 21.2428 20.219 18.9066C20.6961 17.8204 20.9134 17.2333 20.8694 17.1439V17.1439Z" fill="black"/>
</svg>
