<svg width="1500" height="245" viewBox="0 0 1500 245" fill="none" xmlns="http://www.w3.org/2000/svg">
<path d="M0 155.353C0 104.569 38.8106 66.1387 90.5679 66.1387C134.682 66.1387 169.522 94.186 176.484 134.288H136.992C131.008 115.251 112.788 102.212 90.5383 102.212C60.6749 102.212 38.1292 125.277 38.1292 155.323C38.1292 185.37 60.7045 208.464 90.5383 208.464C112.758 208.464 131.008 195.425 136.992 176.388H176.484C169.522 216.49 134.682 244.538 90.5679 244.538C38.8106 244.538 0 206.107 0 155.323" fill="white"/>
<path d="M675.506 155.353C675.506 104.569 714.316 66.1387 765.748 66.1387C817.179 66.1387 856.316 104.569 856.316 155.681C856.316 160.366 855.99 165.378 855.308 169.705H715.324C720.953 194.44 740.862 210.791 767.407 210.791C786.99 210.791 803.907 202.108 812.528 189.069H853.649C840.051 222.159 806.869 244.538 766.726 244.538C714.316 244.538 675.506 206.107 675.506 155.323M715.65 138.972H816.498C810.869 115.58 790.96 99.885 765.748 99.885C740.536 99.885 721.634 115.251 715.65 138.972Z" fill="white"/>
<path d="M874.371 155.353C874.371 104.569 909.863 66.1387 957.651 66.1387C982.537 66.1387 1003.1 76.8205 1017.02 94.544V70.1369H1054.17V240.539H1017.02V216.162C1003.1 233.856 982.507 244.567 957.651 244.567C909.863 244.567 874.371 206.137 874.371 155.353ZM1017.02 155.353C1017.02 125.277 994.802 102.242 964.939 102.242C935.075 102.242 912.53 125.307 912.53 155.353C912.53 185.399 934.749 208.494 964.939 208.494C995.128 208.494 1017.02 185.429 1017.02 155.353Z" fill="white"/>
<path d="M1266.49 23.8701L1303.64 0V240.551H1266.49V23.8701Z" fill="white"/>
<path d="M1319.19 155.353C1319.19 104.569 1358 66.1387 1409.43 66.1387C1460.86 66.1387 1500 104.569 1500 155.681C1500 160.366 1499.67 165.378 1498.99 169.705H1359.01C1364.64 194.44 1384.55 210.791 1411.09 210.791C1430.67 210.791 1447.59 202.108 1456.21 189.069H1497.36C1483.77 222.159 1450.58 244.538 1410.44 244.538C1358.03 244.538 1319.22 206.107 1319.22 155.323M1359.33 138.972H1460.18C1454.55 115.58 1434.64 99.885 1409.43 99.885C1384.22 99.885 1365.32 115.251 1359.33 138.972Z" fill="white"/>
<path d="M622.842 23.8701V94.5553C608.918 76.8317 588.357 66.1499 563.471 66.1499C515.713 66.1499 480.191 104.581 480.191 155.364C480.191 206.148 515.684 244.579 563.471 244.579C571.233 244.579 578.492 243.445 585.335 241.475L605.244 195.794C596.208 203.761 584.299 208.505 570.789 208.505C540.6 208.505 518.38 185.44 518.38 155.364C518.38 125.288 540.6 102.253 570.789 102.253C600.978 102.253 622.872 125.318 622.872 155.364V240.55H660.024V0L622.872 23.8701H622.842Z" fill="white"/>
<path d="M1167.42 66.1499C1142.54 66.1499 1121.98 76.8318 1107.7 94.5553V0L1070.55 23.8701V240.551H1107.7V155.364C1107.7 125.288 1130.24 102.224 1160.11 102.224C1189.97 102.224 1212.19 125.288 1212.19 155.334C1212.19 185.381 1189.97 208.475 1160.11 208.475C1146.42 208.475 1134.33 203.612 1125.18 195.466L1145.17 241.326C1152.14 243.355 1159.51 244.549 1167.39 244.549C1214.83 244.549 1250.67 206.118 1250.67 155.334C1250.67 104.551 1214.86 66.1201 1167.39 66.1201" fill="white"/>
<path d="M264.143 155.354L328.166 90.9047L347.956 70.9434H308.346H281.83L198.017 155.354L281.06 239.018L314.123 205.72L264.143 155.354Z" fill="white"/>
<path d="M375.239 71.748L342.146 105.047L392.126 155.353L328.133 219.862L308.313 239.793H347.923H374.439L458.282 155.353L375.239 71.748Z" fill="white"/>
<path d="M328.038 119.31L292.257 155.346L328.038 191.382L363.819 155.346L328.038 119.31Z" fill="white"/>
</svg>
